# xmcd
#
# Track frame offsets:
# 150
# 16977
# 37739
# 55039
# 71574
# 85394
# 98857
# 113342
# 130844
# 148477
# 163139
# 176859
# 191604
# 211215
#
# Disc length: 3012 seconds
#
#
# Revision: 0
# Processed by: cddbd v1.5.2PL0 Copyright (c) Steve Scherf et al.
# Submitted via: FreeRIP 2.96 
#
DISCID=c10bc20e
DTITLE=SUPER 3-DANIEL-CD2 - 
DYEAR=2009
DGENRE=Country
TTITLE0=MOÇA
TTITLE1=DECLARAÇÃO DE AMOR
TTITLE2=VAI DAR SAMBA
TTITLE3=DÁ-ME, DÁ-ME
TTITLE4=VOU DE FUSCA
TTITLE5=QUEM DIRIA HEIN?
TTITLE6=TÁ FALTANDO AMOR
TTITLE7=TOCANDO EM FRENTE
TTITLE8=MARCAS DA PAIXÃO
TTITLE9=DENGO
TTITLE10=QUEBRADEIRA
TTITLE11=JÁ TÔ NO GRUDE
TTITLE12=DESEJO DE AMAR
TTITLE13=FRICOTE
EXTD=
EXTT0=
EXTT1=
EXTT2=
EXTT3=
EXTT4=
EXTT5=
EXTT6=
EXTT7=
EXTT8=
EXTT9=
EXTT10=
EXTT11=
EXTT12=
EXTT13=
PLAYORDER=
